<?xml version="1.0" encoding="UTF-8"?>
<svg width="64px" height="41.7294275px" viewBox="0 0 64 41.7294275" version="1.1" xmlns="http://www.w3.org/2000/svg" xmlns:xlink="http://www.w3.org/1999/xlink">
    <title>15CE2E8F-496C-448B-BEE6-8CA67002AD60</title>
    <g id="2.0-Desktop---Fale-com-um-especialista" stroke="none" stroke-width="1" fill="none" fill-rule="evenodd" stroke-linecap="round">
        <g id="2.0-Fale-com-um-especialista" transform="translate(-870.000000, -536.800000)" stroke="#FFFFFF">
            <g id="mapa" transform="translate(0.000000, 440.000000)">
                <g id="Group" transform="translate(670.000000, 60.000000)">
                    <g id="Group-2" transform="translate(20.000000, 20.000000)">
                        <g id="ícone-São-Paulo" transform="translate(172.000000, 0.000000)">
                            <g id="São-Paulo---Desktop" transform="translate(8.000000, 16.800000)">
                                <path d="M29.0591042,36.1292379 L29.2608263,35.1696677 C29.3649735,34.6762322 29.7653843,34.2995831 30.2638755,34.2262756 L30.3917845,34.2075695 C32.468157,33.9027113 34.5784027,33.9027113 36.6552808,34.2075695 L36.7826843,34.2262756 C37.281681,34.2995831 37.6820918,34.6762322 37.7857335,35.1696677 L37.9874556,36.1292379 L29.0591042,36.1292379 Z M33.5141796,15.5181944 L37.321621,32.0771011 L29.7249388,32.0771011 L33.5141796,15.5181944 Z M32.6562288,8.46398791 L33.2533059,8.2607491 C33.4282329,8.20159751 33.6183269,8.20159751 33.7932538,8.2607491 L34.390331,8.46398791 C34.7659689,8.59139134 35.0010585,8.96450138 34.953535,9.35833975 L34.6087369,12.2325004 C34.5738526,12.5262361 34.3862864,12.7800318 34.1158069,12.8998517 L33.8630224,13.0115825 C33.6466388,13.1071351 33.399921,13.1071351 33.1835374,13.0115825 L32.9312584,12.8998517 C32.6602733,12.7800318 32.4732127,12.5262361 32.4378229,12.2325004 L32.0930247,9.35833975 C32.0460068,8.96450138 32.2805909,8.59139134 32.6562288,8.46398791 Z M64,36.1292379 L41.8206809,36.1292379 L36.1067383,14.9347676 L38.0723912,1.47348313 L37.9121258,0.297023692 C37.8898807,0.130691438 37.6957422,0.0503059418 37.5622719,0.152430912 L36.1881349,1.1984535 L35.4970219,6.06910679 C35.4262422,6.57113697 34.9965084,6.94374144 34.4899281,6.94374144 L32.5894936,6.94374144 C32.0824078,6.94374144 31.652674,6.5706314 31.5818943,6.06809566 L30.8806699,1.09127284 L29.5070385,0.0452502502 C29.3735682,-0.0568747202 29.1794297,0.0235107763 29.156679,0.18984303 L28.9969192,1.36630247 L30.9635832,14.835676 L26.1611818,32.6574945 L0,32.6574945 L0,33.6140314 L25.9033415,33.6140314 L24.825468,37.613589 L22.8593096,41.7294275 L27.7132791,41.685443 L28.3755747,38.6737675 L29.0798325,38.5003573 C32.08443,37.7596985 35.2260368,37.7733488 38.2240619,38.5397917 L38.6659294,38.6530392 L39.3423809,41.7294275 L44.1872502,41.7294275 L42.2205861,37.613589 L42.0785212,37.0857748 L64,37.0857748 L64,36.1292379 Z" id="Stroke-1"></path>
                                <line x1="32.0871096" y1="6.71613421" x2="35.8212434" y2="2.90414274" id="Stroke-3"></line>
                                <line x1="4.96822814" y1="32.6574945" x2="29.9630619" y2="8.55347365" id="Stroke-5"></line>
                                <line x1="32.851429" y1="6.88100031" x2="35.8499597" y2="3.58620609" id="Stroke-7"></line>
                                <line x1="9.39398057" y1="32.6574945" x2="30.1925903" y2="9.80273504" id="Stroke-9"></line>
                                <line x1="33.9319314" y1="6.87407401" x2="35.7009179" y2="4.60659633" id="Stroke-11"></line>
                                <line x1="13.8197836" y1="32.6574945" x2="30.4343029" y2="11.3578658" id="Stroke-13"></line>
                                <line x1="32.3018248" y1="10.9939571" x2="34.1951813" y2="8.39735389" id="Stroke-15"></line>
                                <line x1="18.245536" y1="32.6574945" x2="30.7260163" y2="13.4231158" id="Stroke-17"></line>
                                <line x1="32.4378229" y1="12.2323993" x2="34.5713247" y2="8.55337253" id="Stroke-19"></line>
                                <line x1="22.671339" y1="32.6574945" x2="30.4763157" y2="16.5444998" id="Stroke-21"></line>
                                <line x1="35.0991895" y1="6.71613421" x2="31.1218769" y2="2.46075858" id="Stroke-23"></line>
                                <line x1="62.5891587" y1="36.1292379" x2="37.0083703" y2="8.75873473" id="Stroke-25"></line>
                                <line x1="34.109639" y1="6.943792" x2="31.2582289" y2="3.46749845" id="Stroke-27"></line>
                                <line x1="58.0481871" y1="36.1292379" x2="36.7955763" y2="10.2183129" id="Stroke-29"></line>
                                <line x1="32.9974374" y1="6.91800797" x2="31.4610127" y2="4.77136132" id="Stroke-31"></line>
                                <line x1="53.507266" y1="36.1292379" x2="36.536826" y2="11.9908384" id="Stroke-33"></line>
                                <line x1="34.6740058" y1="11.6900753" x2="32.851429" y2="8.39730333" id="Stroke-35"></line>
                                <line x1="48.9662943" y1="36.1292379" x2="36.1996619" y2="14.2987616" id="Stroke-37"></line>
                                <line x1="34.3506944" y1="12.7414569" x2="32.4012197" y2="8.58820625" id="Stroke-39"></line>
                                <line x1="44.4253227" y1="36.1292379" x2="37.6456403" y2="20.6006812" id="Stroke-41"></line>
                            </g>
                        </g>
                    </g>
                </g>
            </g>
        </g>
    </g>
</svg>