<?xml version="1.0" encoding="UTF-8"?>
<svg width="200px" height="35.7426849px" viewBox="0 0 200 35.7426849" version="1.1" xmlns="http://www.w3.org/2000/svg" xmlns:xlink="http://www.w3.org/1999/xlink">
    <title>1DCB3E42-D22B-46CC-B3E6-5BB48014CB6B</title>
    <g id="Page-1" stroke="none" stroke-width="1" fill="none" fill-rule="evenodd">
        <g id="Logos" transform="translate(-642.000000, -280.000000)" fill="#161616">
            <g id="PagBrasil---161616" transform="translate(642.000000, 280.000000)">
                <path d="M143.765244,14.2643392 L141.715575,14.2643392 C140.626734,14.2643392 139.743578,15.1474947 139.743578,16.2358567 L139.743578,27.466123 L134.989785,27.466123 L134.989785,15.9975678 C134.989785,12.6658374 137.690074,9.96458992 141.021804,9.96458992 L146.24738,9.96458992 L143.765244,14.2643392 Z M178.255293,16.7551061 C182.200726,17.3577806 184.118065,19.0584062 184.118065,21.9538329 C184.118065,23.7489111 183.405595,25.1963847 182.002711,26.2550205 C180.599827,27.3136564 178.62735,27.8501662 176.139939,27.8501662 C173.011498,27.8501662 170.305935,27.1573542 168.407295,25.8700184 L170.425799,22.3719173 L170.444498,22.3834242 C172.10389,23.4329505 174.032736,23.9651451 176.175898,23.9651451 C178.308513,23.9651451 179.390162,23.4147312 179.390162,22.3292459 C179.390162,21.9116409 179.160504,21.5726664 178.70694,21.3223911 C178.246663,21.0682801 177.525563,20.8745805 176.498571,20.7293057 L175.082262,20.5327293 C171.041898,19.9784797 169.077093,18.2538813 169.077093,15.2625638 C169.077093,13.4909789 169.731549,12.0852178 171.020802,11.0860343 C172.311973,10.0878098 174.124791,9.58150566 176.408434,9.58150566 C178.920776,9.58150566 181.55538,10.1923309 183.742172,11.2289118 L181.735175,14.7063964 C181.175652,14.48345 180.084892,14.0596121 179.422765,13.8778988 C178.423582,13.6050891 177.457481,13.4607732 176.55275,13.4483074 C175.684457,13.4483074 175.012742,13.590226 174.560136,13.869748 C174.106572,14.1507085 173.876913,14.541464 173.876913,15.0300283 C173.876913,15.4773595 174.119517,15.8168134 174.578835,16.0109925 C175.043906,16.2070895 175.762129,16.3792137 176.713367,16.5216117 L178.255293,16.7551061 L178.255293,16.7551061 Z M187.059519,27.466123 L191.814271,27.466123 L191.814271,9.96458992 L187.059519,9.96458992 L187.059519,27.466123 Z M189.436176,7.63396087 C187.99973,7.63396087 186.831778,6.46552989 186.831778,5.02956322 C186.831778,3.59311709 187.99973,2.4237272 189.436176,2.4237272 C190.872622,2.4237272 192.041532,3.59263763 192.041532,5.02908376 C192.041532,6.46552989 190.872622,7.63396087 189.436176,7.63396087 L189.436176,7.63396087 Z M125.133636,23.1495928 L119.500523,23.1495928 L119.500523,16.7857912 L124.495482,16.7857912 L124.4974,16.7857912 L125.133636,16.7857912 C126.75659,16.7857912 128.076529,18.2131277 128.076529,19.9688906 C128.076529,21.7222563 126.75659,23.1495928 125.133636,23.1495928 L125.133636,23.1495928 Z M119.500523,7.45320647 L124.496441,7.45320647 C125.747338,7.45320647 126.764741,8.57896598 126.764741,9.96171319 C126.764741,11.3444604 125.747338,12.4687816 124.496441,12.4687816 L119.500523,12.4687816 L119.500523,7.45320647 Z M128.648039,14.5874916 C130.588392,13.489061 131.320998,11.5539821 131.320998,9.96027483 C131.320998,6.19128183 128.265434,3.13571735 124.495482,3.13571735 L114.745292,3.13571735 L114.745292,27.4666024 L125.133636,27.4666024 C129.275645,27.4666024 132.632307,24.1089815 132.632307,19.9679317 C132.632307,17.6147683 131.095175,15.3013996 128.648039,14.5874916 L128.648039,14.5874916 Z M200,27.4666024 L195.245728,27.4666024 L195.245728,2.42420665 C197.871221,2.42420665 200,4.5529853 200,7.17943786 L200,27.4666024 Z M155.940515,24.0773375 C153.104061,24.0773375 150.796926,21.7232152 150.796926,18.8297064 C150.796926,15.9361976 153.104061,13.5820752 155.940515,13.5820752 C158.777928,13.5820752 161.084584,15.9361976 161.084584,18.8297064 C161.084584,21.7232152 158.777928,24.0773375 155.940515,24.0773375 L155.940515,24.0773375 Z M161.312804,9.96506937 L161.312804,11.7692572 C159.659645,10.3563044 157.56251,9.5810262 155.382909,9.5810262 C150.345759,9.5810262 146.24738,13.6789251 146.24738,18.7160756 C146.24738,23.7532262 150.345759,27.8501662 155.382909,27.8501662 C157.56251,27.8501662 159.659645,27.074888 161.312804,25.6619351 L161.312804,27.4666024 L165.613033,27.4666024 L165.613033,9.96506937 L161.312804,9.96506937 Z" id="Fill-1"></path>
                <path d="M101.315863,24.0770978 C98.4789301,24.0770978 96.1713149,21.7229755 96.1713149,18.8294667 C96.1713149,15.9359578 98.4789301,13.5818355 101.315863,13.5818355 C104.152317,13.5818355 106.459932,15.9359578 106.459932,18.8294667 C106.459932,21.7229755 104.152317,24.0770978 101.315863,24.0770978 L101.315863,24.0770978 Z M106.687194,9.96435019 L106.687194,11.7690175 C105.034034,10.3560646 102.936899,9.58126593 100.757778,9.58126593 C95.7201481,9.58126593 91.6227286,13.6786854 91.6227286,18.7158359 C91.6227286,23.752507 95.7201481,27.8499264 100.757778,27.8499264 C102.936899,27.8499264 105.034034,27.0746483 106.687194,25.6616954 L106.687194,27.3651978 C106.687194,30.8191891 103.010256,31.3346028 100.818189,31.3346028 C98.8749597,31.3346028 96.7893319,30.6595307 95.0201443,29.6100044 L92.8395845,33.3876276 C96.260014,35.3754466 99.6358542,35.6731879 101.140862,35.6731879 C102.7782,35.6731879 110.912628,35.2738022 110.984546,27.4663627 L110.987422,27.4663627 L110.987422,9.96435019 L106.687194,9.96435019 Z M79.2341,24.0775772 C76.3966874,24.0775772 74.0895516,21.7234549 74.0895516,18.8299461 C74.0895516,15.9359578 76.3966874,13.582315 79.2341,13.582315 C82.0705537,13.582315 84.3776894,15.9359578 84.3776894,18.8299461 C84.3776894,21.7234549 82.0705537,24.0775772 79.2341,24.0775772 L79.2341,24.0775772 Z M84.6054304,9.96482965 L84.6054304,11.7694969 C82.9517913,10.3565441 80.8551361,9.58078647 78.6750558,9.58078647 C73.6383848,9.58078647 69.5409653,13.6791648 69.5409653,18.7158359 C69.5409653,23.7529864 73.6383848,27.8504059 78.6750558,27.8504059 C80.8551361,27.8504059 82.9517913,27.0746483 84.6054304,25.6621749 L84.6054304,27.4663627 L88.9056591,27.4663627 L88.9056591,9.96482965 L84.6054304,9.96482965 Z M60.621191,14.512457 L55.4756837,14.512457 L55.4756837,7.45248729 L60.621191,7.45248729 C62.4354474,7.45248729 63.9116883,9.03660545 63.9116883,10.9827119 C63.9116883,12.9302567 62.4354474,14.512457 60.621191,14.512457 L60.621191,14.512457 Z M60.6207116,3.13547763 L50.7899735,3.13547763 L50.7899735,27.4668422 L55.4756837,27.4668422 L55.4756837,18.8294667 L60.6207116,18.8294667 C64.9545022,18.8294667 68.4669869,15.316023 68.4669869,10.9822324 C68.4669869,6.64892129 64.9545022,3.13547763 60.6207116,3.13547763 L60.6207116,3.13547763 Z" id="Fill-3"></path>
                <path d="M33.8219296,25.220693 C33.1693918,21.7925923 31.5061636,18.6320272 28.9971775,16.1230411 L21.2065189,8.33238246 C20.5103507,7.63621431 20.126787,6.71038738 20.126787,5.72510808 C20.126787,4.74078768 20.5098713,3.81496075 21.2060394,3.1187926 C21.9012486,2.42310391 22.8270756,2.04001964 23.8109165,2.04001964 C24.7961958,2.04001964 25.7225022,2.42358336 26.4191498,3.12023097 L34.5809063,11.2819875 C38.2146931,14.9157742 38.2146931,20.8279295 34.5809063,24.4617163 L33.8219296,25.220693 Z M26.4191498,32.6239523 C25.7229817,33.3201204 24.7976342,33.7032047 23.8137932,33.7032047 C22.8289934,33.7032047 21.902687,33.319641 21.2065189,32.6234728 C21.1139841,32.5309381 21.0281617,32.4340882 20.9466544,32.3338822 C21.5977539,30.8609975 21.5972744,29.1737966 20.9456955,27.7009119 C21.0272028,27.6007059 21.1130252,27.5033766 21.2060394,27.4108419 L29.160192,19.4566892 C30.7615706,21.6756053 31.7516444,24.2857565 32.0167828,27.0263192 L26.4191498,32.6239523 Z M19.7633604,25.9686423 C19.7633604,25.9686423 11.7727692,17.9699004 11.6740015,17.8648998 L19.7643193,9.77458204 C19.7643193,9.77458204 27.754431,17.7738034 27.8536781,17.878804 L19.7633604,25.9686423 Z M18.5819841,32.3343616 C18.5014357,32.4345677 18.4151339,32.5314175 18.3221197,32.6239523 C17.626431,33.319641 16.701563,33.7032047 15.7167631,33.7032047 C14.7314838,33.7032047 13.8051774,33.319641 13.1090093,32.6229933 L4.64327855,24.1572626 C1.17730089,20.6908055 1.17730089,15.0509805 4.64327855,11.5845233 L5.70622951,10.5220518 C6.35924674,13.9520704 8.02199546,17.1116765 10.5300227,19.6201833 L18.3206813,27.4108419 C18.4136955,27.5038561 18.4999974,27.6007059 18.5810252,27.7009119 C19.6708256,29.0472206 19.6717845,30.9885324 18.5819841,32.3343616 L18.5819841,32.3343616 Z M13.1090093,3.11927206 C13.8051774,2.42310391 14.7305249,2.03954019 15.7148453,2.03954019 C16.6991657,2.03954019 17.6249926,2.42310391 18.3211608,3.11927206 C18.4136955,3.21180681 18.4995179,3.3091361 18.5810252,3.40934212 C18.5810252,3.40934212 18.5810252,3.40934212 18.5810252,3.40934212 C17.9299258,4.8822268 17.9304052,6.56990717 18.5819841,8.04279185 C18.5009563,8.14299787 18.4146544,8.23984771 18.3221197,8.33238246 L10.3679671,16.2870145 C8.76658853,14.067619 7.77699414,11.4569884 7.51137626,8.71690509 L13.1090093,3.11927206 Z M36.0231059,9.83978788 L27.8613494,1.67803138 C25.6256524,-0.5581451 21.9995368,-0.559583464 19.7638398,1.67659302 L19.761922,1.67611356 C17.526225,-0.559104009 13.9025067,-0.558624555 11.6668097,1.67707247 L7.39247151,5.95093122 L3.20107896,10.1423238 C-1.06702632,14.4109085 -1.06702632,21.3308775 3.20107896,25.5994622 L11.6668097,34.0647135 C13.9025067,36.3004105 17.5286222,36.3023283 19.7643193,34.0661518 C19.7643193,34.0661518 19.7643193,34.0661518 19.7647987,34.0656724 C22.0004958,36.3013694 25.6256524,36.3018489 27.8613494,34.0661518 L33.3271324,28.6003688 C33.3271324,28.5998894 33.3271324,28.5998894 33.3271324,28.5998894 L36.0231059,25.9039159 C40.4590203,21.4680015 40.4590203,14.2757023 36.0231059,9.83978788 L36.0231059,9.83978788 Z" id="Fill-5"></path>
            </g>
        </g>
    </g>
</svg>