<?xml version="1.0" encoding="UTF-8"?>
<svg width="200px" height="37.6103333px" viewBox="0 0 200 37.6103333" version="1.1" xmlns="http://www.w3.org/2000/svg" xmlns:xlink="http://www.w3.org/1999/xlink">
    <title>67DAC4C9-D804-4CC5-9E2C-729E52054315</title>
    <g id="Page-1" stroke="none" stroke-width="1" fill="none" fill-rule="evenodd">
        <g id="Logos" transform="translate(-370.000000, -134.000000)" fill="#0058B5">
            <g id="PagStream---0058B5" transform="translate(370.000000, 134.000000)">
                <path d="M8.88693428,13.8833916 C10.2290959,13.8833916 11.2976129,13.4924707 12.0941142,12.7090001 C12.8906155,11.9271584 13.2896805,10.9058777 13.2896805,9.64841555 C13.2896805,8.33557298 12.8694406,7.26705596 12.0305896,6.44286447 C11.1933674,5.61867299 10.1443964,5.20494841 8.88693428,5.20494841 L5.0721982,5.20494841 L5.0721982,13.8833916 L8.88693428,13.8833916 Z M0,0.761481264 L8.9716338,0.761481264 C10.9262381,0.761481264 12.5273848,1.0628161 13.7718162,1.66385692 C15.0146188,2.26489775 16.0000652,3.00438972 16.7265264,3.88559049 C17.4529877,4.76516244 17.9546695,5.70825902 18.2348294,6.71488024 C18.5149894,7.72150146 18.6550693,8.64342316 18.6550693,9.48064535 C18.6550693,11.0475865 18.3749094,12.3881193 17.8162183,13.5055014 C17.2575273,14.6245124 16.5294372,15.5399187 15.6368345,16.2517205 C14.7409742,16.965151 13.7359818,17.4880077 12.6185997,17.8235481 C11.4995887,18.1590885 10.3968661,18.3268587 9.30717421,18.3268587 L5.0721982,18.3268587 L5.0721982,28.722096 L0,28.722096 L0,0.761481264 Z" id="Fill-1"></path>
                <path d="M151.615399,21.7643562 C151.615399,22.2676668 151.481834,22.7432872 151.216334,23.1895885 C150.950834,23.6358898 150.608778,24.0284395 150.190167,24.3623511 C149.771556,24.6978915 149.28942,24.9633919 148.74376,25.1588523 C148.198099,25.3559416 147.632893,25.4536718 147.046511,25.4536718 C145.87212,25.4536718 144.984404,25.2158616 144.384992,24.7402412 C143.782322,24.2662497 143.482616,23.6081996 143.482616,22.7709774 C143.482616,21.9598166 143.803497,21.2398707 144.446888,20.6111396 C145.090278,19.9824086 146.20766,19.668043 147.800663,19.668043 C148.108513,19.668043 148.478259,19.6745584 148.91153,19.6892179 C149.3448,19.7038774 149.756896,19.7250523 150.147817,19.7527426 C150.623437,19.7804328 151.112088,19.808123 151.615399,19.8358132 L151.615399,21.7643562 Z M155.765676,12.646127 C155.373126,11.7665551 154.814435,11.0107748 154.089602,10.3836725 C153.361512,9.75331265 152.488456,9.26629041 151.468804,8.91609047 C150.447523,8.56589053 149.308966,8.39160497 148.051504,8.39160497 C146.878741,8.39160497 145.850945,8.46816031 144.971373,8.62289982 C144.090172,8.77601049 143.314846,8.97147092 142.645394,9.20928111 C141.974313,9.4470913 141.386303,9.71259172 140.884621,10.0057824 C140.474154,10.2435926 140.128841,10.4748874 139.793301,10.7045534 L141.817945,14.2114393 C142.458078,13.7944571 143.194312,13.4067939 144.028277,13.0435632 C144.865499,12.6819614 145.982881,12.4995317 147.380423,12.4995317 C148.639514,12.4995317 149.659166,12.7796917 150.441008,13.3383827 C151.222849,13.8970738 151.615399,14.6658848 151.615399,15.643187 L151.615399,16.1041478 C151.084398,16.0780864 150.566428,16.0487674 150.064746,16.0210771 C149.616816,15.9933869 149.155855,15.972212 148.680235,15.9591813 C148.206243,15.9445218 147.772973,15.9363776 147.380423,15.9363776 C146.095271,15.9363776 144.922508,16.0911171 143.860506,16.3989673 C142.796876,16.7068175 141.889614,17.1596342 141.135462,17.760675 C140.381311,18.3617158 139.793301,19.1028366 139.37469,19.9824086 C138.956078,20.8619805 138.745958,21.8620864 138.745958,22.9794685 C138.745958,24.0691604 138.947934,25.0204012 139.353515,25.8299331 C139.759095,26.6410939 140.290096,27.3040306 140.946517,27.8220007 C141.602938,28.338342 142.3294,28.7227475 143.12753,28.9735884 C143.922402,29.2260581 144.727048,29.3514786 145.53658,29.3514786 C146.878741,29.3514786 148.093854,29.0990089 149.183545,28.5973271 C150.273237,28.0940165 151.084398,27.5222947 151.615399,26.8789041 L151.740819,28.7227475 L156.352057,28.7227475 L156.352057,15.5177665 C156.352057,14.4850839 156.156596,13.5273278 155.765676,12.646127 L155.765676,12.646127 Z" id="Fill-4"></path>
                <path d="M32.7648692,21.7643562 C32.7648692,22.2676668 32.6313046,22.7432872 32.3658042,23.1895885 C32.1003038,23.6358898 31.758248,24.0284395 31.3396369,24.3623511 C30.9210258,24.6978915 30.4388901,24.9633919 29.8932297,25.1588523 C29.3475694,25.3559416 28.782363,25.4536718 28.1959817,25.4536718 C27.0215902,25.4536718 26.1338741,25.2158616 25.5344621,24.7402412 C24.9317925,24.2662497 24.6320865,23.6081996 24.6320865,22.7709774 C24.6320865,21.9598166 24.9529673,21.2398707 25.5963579,20.6111396 C26.2397485,19.9824086 27.3571306,19.668043 28.9501332,19.668043 C29.2579833,19.668043 29.6277293,19.6745584 30.0609999,19.6892179 C30.4942706,19.7038774 30.9063663,19.7250523 31.2972872,19.7527426 C31.7729076,19.7804328 32.2615586,19.808123 32.7648692,19.8358132 L32.7648692,21.7643562 Z M36.9151457,12.646127 C36.522596,11.7665551 35.963905,11.0107748 35.2390725,10.3836725 C34.5109824,9.75331265 33.6379258,9.26629041 32.6182739,8.91609047 C31.5969932,8.56589053 30.4584362,8.39160497 29.200974,8.39160497 C28.0282115,8.39160497 27.0004154,8.46816031 26.1208434,8.62289982 C25.2396426,8.77601049 24.4643163,8.97147092 23.7948643,9.20928111 C23.1237835,9.4470913 22.5357733,9.71259172 22.0340916,10.0057824 C21.6236247,10.2435926 21.2783112,10.4748874 20.9427708,10.7045534 L22.9674151,14.2114393 C23.607548,13.7944571 24.3437823,13.4067939 25.1777468,13.0435632 C26.014969,12.6819614 27.1323511,12.4995317 28.5298932,12.4995317 C29.7889842,12.4995317 30.8086361,12.7796917 31.5904778,13.3383827 C32.3723195,13.8970738 32.7648692,14.6658848 32.7648692,15.643187 L32.7648692,16.1041478 C32.2338684,16.0780864 31.7158983,16.0487674 31.2142165,16.0210771 C30.7662863,15.9933869 30.3053255,15.972212 29.8297051,15.9591813 C29.3557136,15.9445218 28.9224429,15.9363776 28.5298932,15.9363776 C27.2447409,15.9363776 26.0719783,16.0911171 25.0099766,16.3989673 C23.9463461,16.7068175 23.0390839,17.1596342 22.2849324,17.760675 C21.5307809,18.3617158 20.9427708,19.1028366 20.5241597,19.9824086 C20.1055486,20.8619805 19.8954287,21.8620864 19.8954287,22.9794685 C19.8954287,24.0691604 20.0974044,25.0204012 20.5029848,25.8299331 C20.9085652,26.6410939 21.4395661,27.3040306 22.0959874,27.8220007 C22.7524086,28.338342 23.4788699,28.7227475 24.277,28.9735884 C25.0718724,29.2260581 25.8765179,29.3514786 26.6860498,29.3514786 C28.0282115,29.3514786 29.2433238,29.0990089 30.3330157,28.5973271 C31.4227076,28.0940165 32.2338684,27.5222947 32.7648692,26.8789041 L32.8902897,28.7227475 L37.501527,28.7227475 L37.501527,15.5177665 C37.501527,14.4850839 37.3060666,13.5273278 36.9151457,12.646127 L36.9151457,12.646127 Z" id="Fill-6"></path>
                <path d="M121.810452,15.3086239 C122.033603,14.8053133 122.354484,14.3508678 122.774724,13.9469162 C123.193335,13.5413358 123.71782,13.2057954 124.346551,12.940295 C124.975282,12.6747946 125.693599,12.5412299 126.50476,12.5412299 C127.260541,12.5412299 127.929993,12.6747946 128.518003,12.940295 C129.104384,13.2057954 129.58652,13.5413358 129.962781,13.9469162 C130.340671,14.3508678 130.627347,14.8053133 130.822807,15.3086239 C131.018267,15.8119345 131.115998,16.3152451 131.115998,16.8169269 L121.474912,16.8169269 C121.474912,16.3152451 121.585673,15.8119345 121.810452,15.3086239 L121.810452,15.3086239 Z M133.248145,22.8599119 C133.080375,23.0276821 132.837678,23.2410597 132.520055,23.5033025 C132.199174,23.7688029 131.787078,24.0212726 131.283768,24.2590828 C130.780457,24.496893 130.172901,24.7053841 129.461099,24.886185 C128.747669,25.0686148 127.916962,25.1598296 126.96735,25.1598296 C126.323959,25.1598296 125.674053,25.0474399 125.017632,24.8242892 C124.359582,24.6011386 123.773201,24.2786288 123.256859,23.8600178 C122.738889,23.4414067 122.318649,22.9380961 121.999397,22.3517148 C121.676888,21.7637046 121.517262,21.1072833 121.517262,20.3808221 L136.188196,20.3808221 L136.188196,19.6673915 C136.188196,18.2714783 136.020426,16.9016264 135.686514,15.5594648 C135.350974,14.218932 134.805313,13.0168503 134.051162,11.9548486 C133.295381,10.892847 132.296904,10.0344499 131.054102,9.37639978 C129.80967,8.7199785 128.293223,8.39095344 126.50476,8.39095344 C125.024148,8.39095344 123.675471,8.6580827 122.460358,9.1874547 C121.243617,9.71845554 120.196275,10.4465456 119.315074,11.3684673 C118.435502,12.290389 117.749762,13.3735656 117.26274,14.6163682 C116.77246,15.8607996 116.528134,17.2094766 116.528134,18.6623991 C116.528134,20.2554016 116.77246,21.7083242 117.26274,23.0211667 C117.749762,24.3356381 118.450162,25.4595356 119.357424,26.3961169 C120.266315,27.3326981 121.362522,28.0673035 122.649303,28.5966755 C123.934456,29.1276764 125.359688,29.3931768 126.925,29.3931768 C128.460993,29.3931768 129.78198,29.2254066 130.886332,28.8898662 C131.989054,28.5543258 132.897945,28.1780645 133.611376,27.7594534 C134.323178,27.3392134 134.868838,26.9417772 135.245099,26.5638871 L135.334685,26.474301 L133.248145,22.8599119 Z" id="Fill-8"></path>
                <path d="M54.6398234,20.3804963 C54.6398234,21.7780384 54.2554179,22.7976903 53.4866069,23.4410809 C52.7177959,24.0844715 51.5792388,24.4053524 50.0709358,24.4053524 C48.3948626,24.4053524 47.1781215,23.8873822 46.42397,22.8546996 C45.6698185,21.8203882 45.2919283,20.5482665 45.2919283,19.0399635 C45.2919283,18.2288027 45.4238641,17.4534763 45.6893645,16.7123555 C45.9548649,15.9728636 46.35393,15.3229576 46.8849308,14.7626377 C47.4143028,14.2039467 48.0576934,13.7576454 48.8134737,13.4221049 C49.5676252,13.0865645 50.4471972,12.9187943 51.4538184,12.9187943 C52.3480499,12.9187943 53.0044712,12.9546287 53.4247111,13.0230399 C53.8433222,13.0930799 54.2489026,13.1989543 54.6398234,13.3374054 L54.6398234,20.3804963 Z M56.0862306,9.06170849 C54.6463388,8.78317737 53.0745111,8.6430974 51.3707477,8.6430974 C49.6653555,8.6430974 48.1277334,8.91511316 46.7595104,9.46077353 C45.3896585,10.0048051 44.2217824,10.7540701 43.2591398,11.703682 C42.2948683,12.6532939 41.5537475,13.7723049 41.0374062,15.0558284 C40.5194361,16.3426096 40.260451,17.7124614 40.260451,19.165384 C40.260451,20.562926 40.4640556,21.841563 40.869636,22.9996661 C41.2735876,24.1610268 41.8681131,25.1660192 42.6515836,26.0179009 C43.4334254,26.8714115 44.3765219,27.5359769 45.4808734,28.0099685 C46.583596,28.4855889 47.8492023,28.7233991 49.2744346,28.7233991 C50.5872772,28.7233991 51.6427635,28.5491135 52.4392647,28.1989136 C53.235766,27.8487136 53.9687426,27.395897 54.6398234,26.8355771 L54.6398234,28.9742399 C54.6398234,30.371782 54.2065528,31.4614739 53.3400116,32.2433157 C52.4734703,33.0267862 51.3968091,33.4177071 50.1132856,33.4177071 C48.8818849,33.4177071 47.8133679,33.298802 46.9061057,33.0609918 C45.9972147,32.8231816 45.1534772,32.4404049 44.3716354,31.9094041 L42.2362302,35.6084928 C42.6597278,35.9196006 43.107658,36.1997606 43.5946802,36.4359419 C44.1110215,36.6867828 44.6843721,36.8969028 45.3131032,37.064673 C45.9418342,37.2324432 46.653636,37.364379 47.4501372,37.4621092 C48.2466385,37.5598394 49.1620448,37.6103333 50.1963563,37.6103333 C51.5385179,37.6103333 52.7813205,37.4213883 53.9280217,37.0434981 C55.0730941,36.6672368 56.0650557,36.115061 56.9039068,35.3869709 C57.7411289,34.6605097 58.3991791,33.7662782 58.8731706,32.7042765 C59.348791,31.6422748 59.5866012,30.4271625 59.5866012,29.0589395 L59.5866012,9.94290927 C58.6923697,9.63505909 57.5244936,9.34186844 56.0862306,9.06170849 L56.0862306,9.06170849 Z" id="Fill-10"></path>
                <path d="M113.269483,13.3377312 C113.549643,13.3377312 113.802113,13.3507619 114.038294,13.3703079 L116.527157,9.05877658 C116.139494,8.92195428 115.759975,8.82422406 115.385342,8.76884361 C115.009081,8.71346315 114.582325,8.71672083 114.108334,8.68577292 C111.818189,8.53429109 109.910821,9.01316915 108.369941,9.74451693 C105.250719,11.2251297 103.333578,14.448598 103.333578,17.9017323 L103.333578,28.722096 L108.280355,28.722096 L108.280355,18.1167387 C108.280355,17.3902775 108.41392,16.7338562 108.67942,16.1474749 C108.944921,15.5594648 109.300007,15.0561542 109.747937,14.6375431 C110.194239,14.218932 110.72524,13.8980511 111.34094,13.6732716 C111.955012,13.4501209 112.598402,13.3377312 113.269483,13.3377312" id="Fill-13"></path>
                <path d="M82.6141204,17.2070333 C82.1531595,16.1873814 81.5374592,15.3208402 80.770277,14.6074096 C80.001466,13.8956078 79.1137498,13.3157419 78.1071286,12.8678117 C77.1021362,12.4215104 76.0531652,12.08597 74.9634733,11.8628194 C73.818401,11.6396687 72.868789,11.3953432 72.1130087,11.1282139 C71.3588572,10.8627135 70.7643317,10.5630075 70.3310611,10.2274671 C69.8977905,9.89192667 69.5915691,9.52869603 69.4091394,9.13777517 C69.2267097,8.74685431 69.1371236,8.29892415 69.1371236,7.79561354 C69.1371236,7.46007313 69.2201943,7.10335785 69.3879645,6.72709652 C69.5557347,6.34920635 69.8147198,6.00877943 70.1632909,5.70092925 C70.5134908,5.39307907 70.9532768,5.14060935 71.4842777,4.94514892 C72.0152785,4.75131732 72.6440095,4.65195827 73.3704708,4.65195827 C74.1816316,4.65195827 74.9080929,4.76434802 75.5514835,4.98749868 C76.1932452,5.21064934 76.7454209,5.46311906 77.2063818,5.74165017 C77.6673426,6.02181013 78.3286504,6.51371888 79.0241638,7.20434574 L81.529315,2.86512416 C81.1481672,2.4742033 80.6562584,2.07839592 80.0144966,1.6760732 C79.3026949,1.22814304 78.4149788,0.837222182 77.3529771,0.501681774 C76.2909754,0.166141367 75.0188538,0 73.538241,0 C71.889858,0 70.4581104,0.223150659 69.242998,0.669451978 C68.0262569,1.11738213 67.0131203,1.71027878 66.2019595,2.45139958 C65.3924275,3.19252038 64.7913867,4.04440209 64.4004658,5.00867356 C64.0079161,5.97294502 63.8140846,6.98608159 63.8140846,8.04645443 C63.8140846,8.97000497 63.9671952,9.87075179 64.2750454,10.7519526 C64.5812667,11.6315245 65.0422276,12.4345411 65.657928,13.1626312 C66.2719995,13.8890925 67.0473259,14.5178235 67.9839071,15.0471956 C68.9204883,15.5781964 70.0313551,15.9707461 71.3165074,16.221587 C72.5739696,16.4724279 73.6294559,16.7395571 74.4813376,17.0180882 C75.3332193,17.2982482 76.025475,17.6126137 76.5564758,17.9611848 C77.0874767,18.3113848 77.463738,18.7153363 77.6885175,19.1762972 C77.9116682,19.6388869 78.0240579,20.1617435 78.0240579,20.7497536 C78.0240579,21.8117553 77.6249929,22.7190175 76.8301205,23.4747978 C76.0319904,24.2289493 74.8103627,24.6052106 73.1619797,24.6052106 C72.2661194,24.6052106 71.4631028,24.4797902 70.751301,24.2289493 C70.0378705,23.9764796 69.3944799,23.6621141 68.8227581,23.2842239 C68.2494075,22.9079626 67.7330662,22.5023822 67.2721054,22.0691116 C66.8111445,21.6374698 66.1840423,21.0168829 65.7703177,20.3816365 L65.7703177,20.3816365 L63.0876233,25.0303371 C63.3775563,25.3430738 63.6935506,25.660697 64.0437506,25.989722 C64.7001718,26.6037936 65.4820136,27.1706288 66.3909046,27.6869701 C67.2997956,28.2033114 68.3194475,28.6300667 69.4514892,28.9656071 C70.5835308,29.3011475 71.8475083,29.4689177 73.2450504,29.4689177 C74.6979729,29.4689177 76.0385057,29.2522824 77.2699064,28.8190118 C78.4996783,28.3857412 79.5600511,27.778185 80.4559115,26.9947144 C81.3501429,26.2128727 82.048914,25.3039817 82.5505957,24.2696702 C83.0555352,23.2369876 83.3063761,22.104946 83.3063761,20.8751741 C83.3063761,19.4499418 83.0750812,18.2266852 82.6141204,17.2070333" id="Fill-15"></path>
                <path d="M98.6338945,24.2061456 C98.3016117,24.4309251 97.9660713,24.6508181 97.609356,24.8234748 C97.1483952,25.0482543 96.5261795,25.1590152 95.7443378,25.1590152 C94.9054867,25.1590152 94.2979306,24.8593092 93.9200404,24.2582684 C93.5421502,23.6572276 93.354834,22.7988305 93.354834,21.6798195 L93.354834,13.0860759 L98.6355233,13.0860759 L98.6355233,9.06284867 L93.354834,9.06284867 L93.354834,2.69083861 L88.4080562,2.69083861 L88.4080562,9.06284867 L85.054281,9.06284867 L85.054281,13.0860759 L88.4080562,13.0860759 L88.4080562,22.0153599 C88.4080562,23.1050518 88.5188171,24.1051577 88.7435966,25.0124199 C88.9667473,25.9213109 89.3364933,26.6966373 89.8544634,27.3400279 C90.3708047,27.9817896 91.0484009,28.4785849 91.8872519,28.827156 C92.7244741,29.1773559 93.744126,29.3516415 94.9478365,29.3516415 C96.1205991,29.3516415 97.1826008,29.1773559 98.1322127,28.827156 C98.9140544,28.5404807 99.707298,28.0567161 100.508686,27.4524176 L98.6338945,24.2061456 Z" id="Fill-17"></path>
                <path d="M197.082753,11.4564245 C197.239121,11.4564245 197.348253,11.4238478 197.40852,11.3554367 C197.470416,11.2886543 197.501364,11.2072125 197.501364,11.1078534 C197.501364,10.992206 197.468787,10.9009911 197.405263,10.8374665 C197.340109,10.7739419 197.234235,10.7413651 197.082753,10.7413651 L196.569669,10.7413651 L196.569669,11.4564245 L197.082753,11.4564245 Z M195.846466,10.1500973 L197.108814,10.1500973 C197.312419,10.1500973 197.485076,10.1794164 197.626785,10.2364257 C197.770122,10.2950638 197.88577,10.3683615 197.975356,10.4595763 C198.064942,10.5491624 198.130095,10.6485214 198.170816,10.7543958 C198.211537,10.8635279 198.232712,10.962887 198.232712,11.0557307 C198.232712,11.2300162 198.187104,11.3945287 198.097518,11.5476394 C198.007932,11.7007501 197.869481,11.8229128 197.683794,11.9092412 L198.406997,13.1553015 L197.60561,13.1553015 L196.952446,12.0134868 L196.569669,12.0134868 L196.569669,13.1553015 L195.846466,13.1553015 L195.846466,10.1500973 Z M196.978507,13.999039 C197.29776,13.999039 197.594208,13.9404009 197.866224,13.8214958 C198.139868,13.7025907 198.37605,13.539707 198.576397,13.3328447 C198.776743,13.1276112 198.933112,12.8832857 199.04713,12.6014969 C199.15952,12.3197081 199.216529,12.0134868 199.216529,11.6828329 C199.216529,11.3570655 199.15952,11.0541018 199.04713,10.772313 C198.933112,10.4905242 198.776743,10.2461987 198.576397,10.0360787 C198.37605,9.82758761 198.139868,9.66307508 197.866224,9.54416999 C197.594208,9.42526489 197.301017,9.36662676 196.986652,9.36662676 C196.6674,9.36662676 196.370951,9.42526489 196.098936,9.54416999 C195.825291,9.66307508 195.58911,9.82758761 195.388763,10.0360787 C195.188416,10.2461987 195.030419,10.4905242 194.914771,10.772313 C194.797495,11.0541018 194.740486,11.3570655 194.740486,11.6828329 C194.740486,12.0134868 194.795866,12.3197081 194.909885,12.6014969 C195.022274,12.8832857 195.180272,13.1276112 195.380618,13.3328447 C195.579337,13.539707 195.817147,13.7025907 196.090791,13.8214958 C196.362807,13.9404009 196.659255,13.999039 196.978507,13.999039 L196.978507,13.999039 Z M196.978507,14.7222426 C196.55501,14.7222426 196.159203,14.6440584 195.794343,14.4876901 C195.427855,14.3296929 195.110232,14.1146864 194.839845,13.8377841 C194.569458,13.5625107 194.35608,13.240001 194.199712,12.8718838 C194.043343,12.5021378 193.965159,12.1063305 193.965159,11.6828329 C193.965159,11.2593353 194.043343,10.8635279 194.199712,10.4937819 C194.35608,10.1256648 194.569458,9.80478389 194.839845,9.53113929 C195.110232,9.25912352 195.429484,9.04248821 195.797601,8.88286219 C196.167347,8.72323617 196.563154,8.64342316 196.986652,8.64342316 C197.410149,8.64342316 197.805957,8.72323617 198.170816,8.88286219 C198.537304,9.04248821 198.854928,9.25912352 199.125315,9.53113929 C199.395701,9.80478389 199.609079,10.1256648 199.765447,10.4937819 C199.921816,10.8635279 200,11.2593353 200,11.6828329 C200,12.1063305 199.921816,12.5021378 199.765447,12.8718838 C199.609079,13.240001 199.394073,13.5625107 199.120428,13.8377841 C198.846783,14.1146864 198.527531,14.3296929 198.162672,14.4876901 C197.796184,14.6440584 197.402005,14.7222426 196.978507,14.7222426 L196.978507,14.7222426 Z" id="Fill-19"></path>
                <path d="M160.246932,9.06203425 L160.437506,9.06203425 C162.250401,9.06203425 163.965566,9.87808156 165.10901,11.2837678 L165.10901,11.2837678 C165.36148,11.0052367 165.646526,10.7039019 165.969036,10.383021 C166.289917,10.0621401 166.682466,9.77383599 167.141798,9.52299511 C167.604388,9.27215422 168.13376,9.06203425 168.734801,8.89426405 C169.335842,8.72649385 170.028097,8.64342316 170.809939,8.64342316 C173.409563,8.64342316 175.380456,9.59303509 176.720988,11.4938878 C177.72761,10.4595763 178.753777,9.72659972 179.802748,9.2933291 C180.85009,8.86005848 182.071718,8.64342316 183.470889,8.64342316 C185.958123,8.64342316 187.865491,9.37639978 189.192993,10.8439819 C190.518866,12.3115639 191.183431,14.2873431 191.183431,16.7745771 L191.183431,28.722096 L186.236654,28.722096 L186.236654,16.8169269 C186.236654,15.5594648 185.922288,14.588678 185.293557,13.9045664 C184.664826,13.2188261 183.8048,12.8767703 182.715108,12.8767703 C182.045656,12.8767703 181.429956,13.010335 180.871265,13.2742066 C180.312574,13.5413358 179.830438,13.9110818 179.424858,14.3867022 C179.019277,14.8623226 178.713056,15.4128694 178.502936,16.0416005 C178.292816,16.6703315 178.18857,17.3479277 178.18857,18.074389 L178.18857,28.722096 L173.241793,28.722096 L173.241793,16.8169269 C173.241793,15.5594648 172.927427,14.588678 172.298696,13.9045664 C171.669965,13.2188261 170.809939,12.8767703 169.720247,12.8767703 C169.050795,12.8767703 168.435095,13.010335 167.876404,13.2742066 C167.316084,13.5413358 166.833948,13.9110818 166.429997,14.3867022 C166.024416,14.8623226 165.716566,15.4128694 165.508075,16.0416005 C165.297955,16.6703315 165.193709,17.3479277 165.193709,18.074389 L165.193709,28.722096 L160.246932,28.722096 L160.246932,9.06203425 Z" id="Fill-21"></path>
            </g>
        </g>
    </g>
</svg>