<?xml version="1.0" encoding="UTF-8"?>
<svg width="32px" height="32px" viewBox="0 0 32 32" version="1.1" xmlns="http://www.w3.org/2000/svg" xmlns:xlink="http://www.w3.org/1999/xlink">
    <title>F3E601D7-42A9-4D22-9DA3-6BC289E7190D</title>
    <g id="Page-1" stroke="none" stroke-width="1" fill="none" fill-rule="evenodd">
        <g id="Favicon" transform="translate(-370.000000, -136.000000)">
            <g id="Favico-PagStream---32px" transform="translate(370.000000, 136.000000)">
                <rect id="Rectangle" fill="#0058B5" x="0" y="0" width="32" height="32" rx="4"></rect>
                <path d="M9.02959711,14.8380073 L9.02959711,9.65448138 L11.3083654,9.65448138 C12.0591942,9.65448138 12.6857808,9.90117373 13.185736,10.3933638 C13.6868859,10.8861512 13.9377595,11.5240869 13.9377595,12.3083654 C13.9377595,13.0591942 13.6994296,13.6696533 13.2239644,14.136756 C12.7479019,14.604456 12.1099663,14.8380073 11.3083654,14.8380073 L9.02959711,14.8380073 Z M6,23.7016098 L9.02959711,23.7016098 L9.02959711,17.4918914 L11.559239,17.4918914 C12.2103157,17.4918914 12.8685602,17.3921393 13.5369591,17.1914404 C14.2047606,16.9913389 14.8050653,16.6789416 15.3402622,16.2524565 C15.8730699,15.8277633 16.3079175,15.28062 16.6418182,14.6122211 C16.975719,13.9450169 17.1429681,13.1440134 17.1429681,12.208016 C17.1429681,11.7080608 17.0593435,11.1573336 16.8920945,10.5558343 C16.7242481,9.95493235 16.4249918,9.39166144 15.9907416,8.86602156 C15.5570887,8.33978437 14.9681331,7.89836634 14.2262641,7.53878087 C13.4826031,7.17979273 12.5262969,7 11.3585402,7 L6,7 L6,23.7016098 Z M25.5866559,17.2780515 C25.3112923,16.6687871 24.9433444,16.1515097 24.4852014,15.7250246 C24.0258639,15.3003315 23.4960428,14.953887 22.8945435,14.6862886 C22.2942389,14.4198847 21.6676522,14.2191859 21.0165756,14.0859839 C20.3326464,13.952782 19.7657916,13.8064391 19.3142192,13.6469552 C19.1386077,13.5854314 18.981513,13.5191291 18.8351701,13.4510349 C18.7288475,14.1648299 18.538303,14.826061 18.2450199,15.4138219 C18.0753815,15.7530986 17.8770719,16.0643013 17.665024,16.3617657 C18.0258041,16.4955649 18.4146582,16.6066661 18.8381567,16.6896933 C19.5895828,16.8390228 20.2197533,16.999104 20.7286683,17.1651584 C21.2375833,17.3324075 21.6509273,17.5205627 21.9681032,17.7284294 C22.2852791,17.9374907 22.510468,18.1788072 22.6442672,18.4541708 C22.7774692,18.730729 22.8449661,19.0431264 22.8449661,19.3943494 C22.8449661,20.0287011 22.6066362,20.5704686 22.1317684,21.022041 C21.6551086,21.4724188 20.9251859,21.6970104 19.9408058,21.6970104 C19.4056088,21.6970104 18.9259624,21.6223457 18.500672,21.4724188 C18.0747842,21.3218947 17.6901114,21.1337395 17.3490428,20.9079533 C17.0061822,20.6833617 16.6979661,20.4408506 16.4226025,20.1822119 C16.1472389,19.9247678 15.7727205,19.5538333 15.5254308,19.1745363 L13.9234238,21.9508706 C14.0960487,22.1378311 14.2848012,22.3277783 14.4944599,22.5242959 C14.8863005,22.8910492 15.3534032,23.2297285 15.8963653,23.5379446 C16.4393274,23.8461607 17.0479945,24.1012155 17.7241585,24.3019144 C18.4003226,24.5020159 19.1553326,24.6023654 19.9903832,24.6023654 C20.8582863,24.6023654 21.6586925,24.4727474 22.3945883,24.2141087 C23.1292895,23.9554699 23.7624466,23.5923006 24.2976436,23.1246005 C24.8316459,22.6574978 25.2491712,22.1145357 25.5484276,21.4969089 C25.8500732,20.8798793 26,20.2037153 26,19.4690141 C26,18.6178359 25.8620195,17.887316 25.5866559,17.2780515 L25.5866559,17.2780515 Z M17.2176328,7.55849237 C17.3424723,7.50413643 17.4667145,7.44858585 17.5999164,7.40020309 C18.3256578,7.13320192 19.1810172,7 20.1653974,7 C21.0500254,7 21.8098139,7.09915479 22.4441657,7.29985366 C23.0785175,7.4999552 23.6089359,7.73350656 24.033629,8.00110504 C24.4171072,8.24122689 24.7109877,8.47776484 24.9385658,8.71131619 L23.4422841,11.3030792 C23.0265508,10.8909297 22.6317236,10.5970492 22.3563599,10.4298002 C22.0809963,10.2631485 21.7512768,10.1126243 21.3677986,9.97942239 C20.9837231,9.84562315 20.5494729,9.77872353 20.0650479,9.77872353 C19.631395,9.77872353 19.255682,9.83785802 18.9385061,9.95373772 C18.823821,9.9961473 18.7246662,10.048114 18.6237195,10.098886 C18.6219275,10.0911209 18.6201356,10.0833557 18.6183436,10.0755906 C18.3835976,9.23277484 17.9648777,8.44192575 17.3735328,7.72574142 C17.3251501,7.66780157 17.2678075,7.61523758 17.2176328,7.55849237 L17.2176328,7.55849237 Z" id="Fill-1" fill="#FFFFFF"></path>
            </g>
        </g>
    </g>
</svg>