<?xml version="1.0" encoding="UTF-8"?>
<svg width="24px" height="24px" viewBox="0 0 24 24" version="1.1" xmlns="http://www.w3.org/2000/svg" xmlns:xlink="http://www.w3.org/1999/xlink">
    <title>F7A34891-0F75-4BEA-90E6-FD2707FDF920</title>
    <g id="Page-1" stroke="none" stroke-width="1" fill="none" fill-rule="evenodd">
        <g id="Ãcones-#161616" transform="translate(-1004.000000, -761.000000)">
            <g id="Lamp---24px---161616" transform="translate(1004.000000, 761.000000)">
                <rect id="Rectangle" x="0" y="0" width="24" height="24"></rect>
                <path d="M13.8425383,17.6997225 L10.1574617,17.6997225 L13.8425383,17.6997225 Z M22.5,12.5436098 L20.2896015,12.5436098 L22.5,12.5436098 Z M3.71039852,12.5436098 L1.5,12.5436098 L3.71039852,12.5436098 Z M12.0072844,2.25 L11.9931203,4.45230479 L12.0072844,2.25 Z M19.4251908,5.1981423 L17.8578394,6.74525938 L19.4251908,5.1981423 Z M6.14216064,18.3431743 L4.57926077,19.8902914 L6.14216064,18.3431743 Z M19.4284283,19.8902914 L17.8655284,18.3431743 L19.4284283,19.8902914 Z M6.14216064,6.74525938 L4.57480922,5.1981423 L6.14216064,6.74525938 Z M13.8425383,19.6616434 C13.8668195,20.1934017 13.456872,20.645032 12.9251137,20.6717413 L11.0761004,20.6717413 C10.5443421,20.645032 10.1343945,20.1934017 10.1586757,19.6616434 L10.1586757,17.6997225 C7.55168427,16.7430432 6.07255454,13.9875318 6.71560163,11.2858437 C7.35905342,8.58415555 9.92152933,6.79098898 12.6798736,7.1119055 C15.4382178,7.43282201 17.5203307,9.76664997 17.526401,12.5436098 C17.5191166,14.8705581 16.0416056,16.9385069 13.8425383,17.6997225 L13.8425383,19.6616434 Z" id="Stroke-1" stroke="#161616" stroke-width="1.5" stroke-linecap="round" stroke-linejoin="round"></path>
            </g>
        </g>
    </g>
</svg>