<?xml version="1.0" encoding="UTF-8"?>
<svg width="24px" height="24px" viewBox="0 0 24 24" version="1.1" xmlns="http://www.w3.org/2000/svg" xmlns:xlink="http://www.w3.org/1999/xlink">
    <title>3724B209-23DC-481D-B700-BD3D7C15349B</title>
    <g id="Page-1" stroke="none" stroke-width="1" fill="none" fill-rule="evenodd">
        <g id="Ãcones-#161616" transform="translate(-1004.000000, -917.000000)">
            <g id="Language---24px---161616" transform="translate(1004.000000, 917.000000)">
                <rect id="Rectangle" x="0" y="0" width="24" height="24"></rect>
                <path d="M5.78047653,4.49172622 C1.63394179,7.92664627 1.05662558,14.0726121 4.49154563,18.2197041 C7.92646568,22.3662388 14.0729887,22.943555 18.2195235,19.508635 C22.3660582,16.0737149 22.9433744,9.92719185 19.5084544,5.78065712 C16.0735343,1.63356513 9.92701126,1.05680617 5.78047653,4.49172622 Z" id="Stroke-1" stroke="#161616" stroke-width="1.5" stroke-linecap="round" stroke-linejoin="round"></path>
                <path d="M9.69073513,4.49172622 C8.15103946,7.92664627 7.93705352,14.0726121 9.21205305,18.2197041 C10.4876098,22.3662388 12.7695692,22.943555 14.3092649,19.508635 C15.8489605,16.0737149 16.0629465,9.92719185 14.787947,5.78065712 C13.5123902,1.63356513 11.2304308,1.05680617 9.69073513,4.49172622 Z" id="Stroke-3" stroke="#161616" stroke-width="1.5" stroke-linecap="round" stroke-linejoin="round"></path>
                <line x1="2.80306286" y1="9.24917965" x2="21.1924791" y2="9.24917965" id="Stroke-5" stroke="#161616" stroke-width="1.5" stroke-linecap="round" stroke-linejoin="round"></line>
                <line x1="2.80306286" y1="15.193252" x2="21.1924791" y2="15.193252" id="Stroke-7" stroke="#161616" stroke-width="1.5" stroke-linecap="round" stroke-linejoin="round"></line>
            </g>
        </g>
    </g>
</svg>