<?xml version="1.0" encoding="UTF-8"?>
<svg width="24px" height="24px" viewBox="0 0 24 24" version="1.1" xmlns="http://www.w3.org/2000/svg" xmlns:xlink="http://www.w3.org/1999/xlink">
    <title>D4CC43A1-E5A9-490E-8148-200D4A292C05</title>
    <g id="Page-1" stroke="none" stroke-width="1" fill="none" fill-rule="evenodd">
        <g id="Ícones-#161616" transform="translate(-1261.000000, -865.000000)">
            <g id="Recorrência--24px---161616" transform="translate(1261.000000, 865.000000)">
                <rect id="Rectangle" x="0" y="0" width="24" height="24"></rect>
                <path d="M22,10.8100794 C21.4963983,6.87259546 18.6825315,3.43742695 14.6106252,2.34596824 C10.5387188,1.25450954 6.38448675,2.82127053 3.9783895,5.97923297" id="Stroke-1" stroke="#161616" stroke-width="1.5" stroke-linecap="round" stroke-linejoin="round"></path>
                <path d="M2,13.3603752 C2.50360175,17.2985023 5.31746848,20.7330277 9.38937484,21.8244864 C13.4612812,22.9159451 17.6155132,21.3491841 20.0216105,18.1912217" id="Stroke-3" stroke="#161616" stroke-width="1.5" stroke-linecap="round" stroke-linejoin="round"></path>
                <polyline id="Stroke-5" stroke="#161616" stroke-width="1.5" stroke-linecap="round" stroke-linejoin="round" points="7.32788783 6.23154838 3.7833805 6.23154838 3.7833805 2.68704105"></polyline>
                <polyline id="Stroke-7" stroke="#161616" stroke-width="1.5" stroke-linecap="round" stroke-linejoin="round" points="17.1759069 17.42019 20.7204142 17.42019 20.7204142 20.9646973"></polyline>
                <path d="M13.9193465,9.06284501 L11.3723952,9.06284501 C10.4873939,9.06284501 9.77025984,9.77997905 9.77025984,10.6649803 L9.77025984,10.6649803 C9.77025984,11.5499816 10.4873939,12.2671157 11.3723952,12.2671157 L12.6587342,12.2671157 C13.5430924,12.2671157 14.2608696,12.9842497 14.2608696,13.869251 L14.2608696,13.8853302 C14.2608696,14.7703315 13.5430924,15.4874655 12.6587342,15.4874655 L9.95099048,15.4874655" id="Stroke-9" stroke="#161616" stroke-width="1.5" stroke-linecap="round" stroke-linejoin="round"></path>
                <line x1="12.0153074" y1="7.63327208" x2="12.0153074" y2="9.06303796" id="Stroke-11" stroke="#161616" stroke-width="1.5" stroke-linecap="round" stroke-linejoin="round"></line>
                <line x1="12.0153074" y1="15.4874012" x2="12.0153074" y2="16.9171671" id="Stroke-13" stroke="#161616" stroke-width="1.5" stroke-linecap="round" stroke-linejoin="round"></line>
            </g>
        </g>
    </g>
</svg>