<?xml version="1.0" encoding="UTF-8"?>
<svg width="24px" height="24px" viewBox="0 0 24 24" version="1.1" xmlns="http://www.w3.org/2000/svg" xmlns:xlink="http://www.w3.org/1999/xlink">
    <title>B332CC80-F512-4216-B218-CA5D77928374</title>
    <g id="Page-1" stroke="none" stroke-width="1" fill="none" fill-rule="evenodd">
        <g id="Ãcones-#161616" transform="translate(-1261.000000, -813.000000)">
            <g id="Star--24px---161616" transform="translate(1261.000000, 813.000000)">
                <rect id="Rectangle" x="0" y="0" width="24" height="24"></rect>
                <path d="M14.6414288,7.0214284 L12,2 L9.3585712,7.0214284 C9.171967,7.3883744 8.9018728,7.7064206 8.57,7.95 C8.236512,8.1948264 7.8506172,8.358673 7.4428572,8.4285714 L2,9.4957144 L5.8,14.04 C6.3196752,14.6095474 6.5648902,15.37754 6.4714286,16.1428566 L5.7485716,22 L10.76,19.571429 C11.1466004,19.384188 11.570444,19.2865272 12,19.285714 C12.4030252,19.286942 12.799864,19.3849272 13.1571432,19.571429 L18.285714,21.85 L17.5628574,16.062858 C17.471498,15.2992232 17.717128,14.53365 18.235714,13.9657146 L22,9.4957144 L16.557144,8.4285714 C16.1488826,8.3588852 15.762476,8.195029 15.4285712,7.95 C15.09722,7.706254 14.8276252,7.3882212 14.6414288,7.0214284 Z" id="Vector-31" stroke="#161616" stroke-width="1.5" stroke-linecap="round" stroke-linejoin="round"></path>
            </g>
        </g>
    </g>
</svg>