<?xml version="1.0" encoding="UTF-8"?>
<svg width="24px" height="24px" viewBox="0 0 24 24" version="1.1" xmlns="http://www.w3.org/2000/svg" xmlns:xlink="http://www.w3.org/1999/xlink">
    <title>4D171486-ABCA-4C2C-8926-0983FD7BF664</title>
    <g id="Page-1" stroke="none" stroke-width="1" fill="none" fill-rule="evenodd">
        <g id="Ãcones-#161616" transform="translate(-650.000000, -761.000000)">
            <g id="Twitter---24px---161616" transform="translate(650.000000, 761.000000)">
                <rect id="Rectangle" x="0" y="0" width="24" height="24"></rect>
                <path d="M19.3404503,8.62171354 C19.3518644,8.78493612 19.3518644,8.94701728 19.3518644,9.11138127 C19.3518644,14.1164931 15.5418158,19.8874955 8.57575015,19.8874955 L8.57575015,19.8852127 C6.51777599,19.8874955 4.50203425,19.2985246 2.76936383,18.1867848 C3.0695564,18.2233101 3.36974897,18.2404314 3.67108295,18.2415728 C5.37635938,18.2427142 7.0336963,17.6708645 8.37486083,16.6173369 C6.75404923,16.5865187 5.33298554,15.5295669 4.83646932,13.9875131 C5.40489479,14.0959476 5.9893001,14.0742607 6.54631141,13.9213109 C4.77939849,13.5651889 3.50900179,12.0128623 3.50900179,10.2094241 L3.50900179,10.1614846 C4.03519485,10.4548286 4.62416583,10.6169098 5.22797522,10.6351725 C3.56378979,9.52343267 3.05015231,7.30908443 4.05574035,5.57869684 C5.97788593,7.94485349 8.81544764,9.38303842 11.8607472,9.53484683 C11.5559889,8.21993489 11.972606,6.84110362 12.9565071,5.91655616 C14.4825811,4.48293689 16.8818389,4.55598755 18.3154581,6.08092015 C19.1635307,5.91313191 19.9762193,5.60266659 20.7204229,5.16093836 C20.4373516,6.03754632 19.8460978,6.78289137 19.0550961,7.25543785 C19.8061482,7.16754877 20.5400791,6.96665945 21.2306362,6.65961838 C20.7215644,7.42208468 20.0812296,8.08524773 19.3404503,8.62171354 L19.3404503,8.62171354 Z" id="Stroke-3" stroke="#161616" stroke-width="1.5" stroke-linecap="round" stroke-linejoin="round"></path>
            </g>
        </g>
    </g>
</svg>