<?xml version="1.0" encoding="UTF-8"?>
<svg width="24px" height="24px" viewBox="0 0 24 24" version="1.1" xmlns="http://www.w3.org/2000/svg" xmlns:xlink="http://www.w3.org/1999/xlink">
    <title>838B4439-EC75-4A3B-8087-8367C8DC5C0F</title>
    <g id="Page-1" stroke="none" stroke-width="1" fill="none" fill-rule="evenodd">
        <g id="Ãcones-#FFFFFF" transform="translate(-650.000000, -709.000000)">
            <g id="Youtube---24px---FFFFFF" transform="translate(650.000000, 709.000000)">
                <rect id="Rectangle" x="0" y="0" width="24" height="24"></rect>
                <g id="Group-2" transform="translate(3.000000, 6.000000)" stroke="#FFFFFF" stroke-linecap="round" stroke-linejoin="round" stroke-width="1.5">
                    <path d="M14.0689464,12.5737203 C16.1378035,12.6491474 17.878014,11.0355466 17.9588287,8.96668954 L17.9588287,3.60957093 C17.878014,1.54071385 16.1378035,-0.0728869095 14.0689464,0.00254017127 L3.88988231,0.00254017127 C1.82102524,-0.0728869095 0.0808147294,1.54071385 0,3.60957093 L0,8.96668954 C0.0808147294,11.0355466 1.82102524,12.6491474 3.88988231,12.5737203 L14.0689464,12.5737203 Z" id="Stroke-3"></path>
                    <path d="M8.53762719,3.75144567 L11.3760201,5.68022388 C11.5600981,5.78797685 11.6732387,5.98462603 11.6732387,6.19743815 C11.6732387,6.41025027 11.5600981,6.60689944 11.3760201,6.71465242 L8.53762719,8.82481479 C7.99886233,9.19027696 7.1835315,8.87869128 7.1835315,8.30760053 L7.1835315,4.26686406 C7.1835315,3.69846713 7.99976027,3.38598351 8.53762719,3.75144567 Z" id="Stroke-5"></path>
                </g>
            </g>
        </g>
    </g>
</svg>