<?xml version="1.0" encoding="UTF-8"?>
<svg width="24px" height="24px" viewBox="0 0 24 24" version="1.1" xmlns="http://www.w3.org/2000/svg" xmlns:xlink="http://www.w3.org/1999/xlink">
    <title>E66F2C31-AFAD-4BA6-9F04-E1421844FC3F</title>
    <g id="Page-1" stroke="none" stroke-width="1" fill="none" fill-rule="evenodd">
        <g id="Ícones-#FFFFFF" transform="translate(-650.000000, -383.000000)">
            <g id="Calendário---24px---FFFFFF" transform="translate(650.000000, 383.000000)">
                <rect id="Rectangle" x="0" y="0" width="24" height="24"></rect>
                <path d="M7.28567611,12.8570283 L9.64297166,16.3927045 L16.7143239,10.4997328 M8.46405668,4.60729555 C5.86039676,4.60729555 3.75,6.71769231 3.75,9.32135223 L3.75,16.3927045 C3.75,18.9963644 5.86039676,21.1067611 8.46405668,21.1067611 L15.5354089,21.1067611 C18.1390688,21.1067611 20.25,18.9963644 20.25,16.3927045 L20.25,9.32135223 C20.25,6.71769231 18.1390688,4.60729555 15.5354089,4.60729555 M8.46405668,4.60729555 L15.5354089,4.60729555 M8.46405668,4.60729555 L8.46405668,5.78567611 M8.46405668,4.60729555 L8.46405668,2.25 M15.5354089,4.60729555 L15.5354089,5.78567611 M15.5354089,4.60729555 L15.5354089,2.25" id="Stroke-1" stroke="#FFFFFF" stroke-width="1.5" stroke-linecap="round" stroke-linejoin="round"></path>
            </g>
        </g>
    </g>
</svg>