<?xml version="1.0" encoding="UTF-8"?>
<svg width="16px" height="16px" viewBox="0 0 16 16" version="1.1" xmlns="http://www.w3.org/2000/svg" xmlns:xlink="http://www.w3.org/1999/xlink">
    <title>E843A1BC-8F92-4952-BDDF-B06D0FF4C38F</title>
    <g id="Page-1" stroke="none" stroke-width="1" fill="none" fill-rule="evenodd">
        <g id="Ícones-#FFFFFF" transform="translate(-714.000000, -387.000000)">
            <g id="Calendário---16px---FFFFFF" transform="translate(714.000000, 387.000000)">
                <rect id="Rectangle" x="0" y="0" width="16" height="16"></rect>
                <path d="M4.85711741,8.57135223 L6.42864777,10.9284696 L11.1428826,6.99982186 M5.64270445,3.07153036 C3.90693117,3.07153036 2.5,4.47846154 2.5,6.21423482 L2.5,10.9284696 C2.5,12.6642429 3.90693117,14.0711741 5.64270445,14.0711741 L10.3569393,14.0711741 C12.0927126,14.0711741 13.5,12.6642429 13.5,10.9284696 L13.5,6.21423482 C13.5,4.47846154 12.0927126,3.07153036 10.3569393,3.07153036 M5.64270445,3.07153036 L10.3569393,3.07153036 M5.64270445,3.07153036 L5.64270445,3.85711741 M5.64270445,3.07153036 L5.64270445,1.5 M10.3569393,3.07153036 L10.3569393,3.85711741 M10.3569393,3.07153036 L10.3569393,1.5" id="Stroke-1" stroke="#FFFFFF" stroke-width="1.5" stroke-linecap="round" stroke-linejoin="round"></path>
            </g>
        </g>
    </g>
</svg>