<?xml version="1.0" encoding="UTF-8"?>
<svg width="24px" height="24px" viewBox="0 0 24 24" version="1.1" xmlns="http://www.w3.org/2000/svg" xmlns:xlink="http://www.w3.org/1999/xlink">
    <title>C17A29A2-3A18-4533-9CED-02EF784D460D</title>
    <g id="Page-1" stroke="none" stroke-width="1" fill="none" fill-rule="evenodd">
        <g id="Ãcones-#FFFFFF" transform="translate(-650.000000, -657.000000)">
            <g id="Linkedin---24px---FFFFFF" transform="translate(650.000000, 657.000000)">
                <rect id="Rectangle" x="0" y="0" width="24" height="24"></rect>
                <path d="M12,2.25 C6.6152785,2.25 2.25,6.6152785 2.25,12 C2.25,17.3847215 6.6152785,21.75 12,21.75 C17.3847215,21.75 21.75,17.3847215 21.75,12 C21.75,6.6152785 17.3847215,2.25 12,2.25 Z" id="Stroke-1" stroke="#FFFFFF" stroke-width="1.5" stroke-linecap="round" stroke-linejoin="round"></path>
                <path d="M8.53609674,10.4288584 L8.53609674,15.8090964 M16.75316,15.8090964 L16.75316,13.1189774 C16.75316,11.6332471 15.5487713,10.4288584 14.063041,10.4288584 C12.5773107,10.4288584 11.3729221,11.6332471 11.3729221,13.1189774 L11.3729221,15.8090964 M8.53609674,7.73873944 L8.53609674,8.63544577" id="Stroke-3" stroke="#FFFFFF" stroke-width="1.5" stroke-linecap="round" stroke-linejoin="round"></path>
            </g>
        </g>
    </g>
</svg>